<svg xmlns="http://www.w3.org/2000/svg" aria-hidden="true" overflow="hidden" style="position:absolute;width:0;height:0"><defs><symbol id="icon-FB" viewBox="0 0 19 32"><path d="M18.09.668a41.312 41.312 0 0 0-4.476-.23c-4.956 0-8.036 3.157-8.036 8.238v3.45H1.415a.738.738 0 0 0-.737.737v5.674a.738.738 0 0 0 .737.737h4.163v11.377a.738.738 0 0 0 .737.737h5.862a.738.738 0 0 0 .737-.737V19.274h4.15a.736.736 0 0 0 .731-.641l.732-5.674a.751.751 0 0 0-.177-.582.743.743 0 0 0-.554-.251h-4.882V9.239c0-1.429.287-2.026 2.075-2.026h3.005a.738.738 0 0 0 .737-.737V1.399a.736.736 0 0 0-.641-.731zm-.832 5.069-2.269.001c-3.179 0-3.547 1.998-3.547 3.5v3.625a.739.739 0 0 0 .735.737h4.784l-.544 4.2h-4.238a.738.738 0 0 0-.737.737v11.374H7.053V18.537a.738.738 0 0 0-.737-.737H2.154v-4.2h4.162a.738.738 0 0 0 .737-.737V8.675c0-4.235 2.454-6.764 6.562-6.764 1.487 0 2.829.081 3.643.152v3.674z"/></symbol><symbol id="icon-instagram" viewBox="0 0 32 32"><path d="M16 8.897a7.106 7.106 0 0 0-6.562 4.385 7.109 7.109 0 0 0 1.54 7.741 7.109 7.109 0 0 0 10.929-1.076 7.101 7.101 0 0 0-5.906-11.048zm0 12.353a5.252 5.252 0 0 1-5.15-6.274 5.248 5.248 0 0 1 9.514-1.892c.577.863.885 1.878.885 2.917a5.265 5.265 0 0 1-5.25 5.25zM22.794.868H9.206A8.338 8.338 0 0 0 .868 9.206v13.588a8.338 8.338 0 0 0 8.338 8.338h13.588a8.338 8.338 0 0 0 8.338-8.338V9.206A8.338 8.338 0 0 0 22.794.868zm6.485 21.926a6.488 6.488 0 0 1-6.485 6.485H9.206a6.486 6.486 0 0 1-6.485-6.485V9.206a6.486 6.486 0 0 1 6.485-6.485h13.588a6.488 6.488 0 0 1 6.485 6.485v13.588zM25.574 7.971a1.55 1.55 0 0 1-.953 1.427 1.54 1.54 0 0 1-1.683-.335 1.547 1.547 0 0 1-.335-1.683 1.548 1.548 0 0 1 1.427-.953 1.547 1.547 0 0 1 1.544 1.544z"/></symbol><symbol id="icon-Phone" viewBox="0 0 29 32"><path d="m26.637 23.305-.182-.227c-1.441-1.821-2.645-2.769-3.678-2.894-.893-.122-1.757.496-2.675 1.131l-.981.613a2.205 2.205 0 0 1-.343.139c-.574.162-2.023.258-2.843-.493-.955-.874-2.436-2.472-3.588-3.87-1.1-1.446-2.31-3.249-2.941-4.385-.533-.962-.087-2.307.211-2.806.059-.098.136-.195.221-.29l.865-.799c.013-.013.018-.028.029-.039.008-.008.022-.006.032-.013.781-.659 1.589-1.338 1.7-2.211.13-1.025-.507-2.411-1.95-4.231l-.176-.227C9.445 1.558 8.094-.174 6.153.112 5.39.225 4.708.486 4.005.927c-.007.004-.011.013-.017.017s-.013.004-.018.008l-.979.725c-.01.006-.015.018-.025.027-.007.007-.018.008-.027.015-.113.095-.227.193-.339.294-.993.885-3.142 3.454-1.676 8.205.946 3.069 2.898 6.65 5.657 10.377l-.027.022 1.522 1.896.013-.01c2.992 3.539 6.037 6.275 8.827 7.931 1.862 1.106 3.489 1.471 4.827 1.471 1.761 0 3.023-.633 3.655-1.044l.398-.266c.045-.031.077-.074.109-.113l.867-.652c.01-.008.015-.02.025-.028.004-.004.011-.003.017-.007.616-.563 1.043-1.152 1.34-1.851.769-1.791-.608-3.506-1.518-4.641zm.489 4.202c-.231.543-.568 1.005-1.056 1.453l-1.289.97c-1.168.759-3.664 1.697-7.29-.456-2.79-1.656-5.862-4.456-8.884-8.098l-.818-1.033c-2.846-3.774-4.848-7.389-5.793-10.452-1.228-3.983.319-6.119 1.355-7.042.105-.095.21-.183.314-.272l.004-.004.939-.696c.571-.361 1.1-.563 1.709-.655 1.301-.196 2.359 1.176 3.136 2.173l.182.231c1.613 2.034 1.768 3.002 1.718 3.396-.056.438-.722 1-1.31 1.494l-.083.07-.007.01-.013.007-.895.827c-.006.006-.008.013-.014.02s-.017.01-.022.017a3.058 3.058 0 0 0-.354.472c-.503.841-.977 2.58-.228 3.926.654 1.176 1.898 3.034 3.042 4.535 1.196 1.45 2.72 3.097 3.709 4 .741.676 1.771.903 2.663.903.477 0 .916-.066 1.247-.16.175-.05.356-.123.542-.214.011-.006.017-.015.028-.022.006-.003.014-.001.02-.006l1.039-.65c.034-.022.056-.052.084-.08l.013.014c.64-.444 1.369-.965 1.826-.889.405.049 1.323.438 2.939 2.478l.186.234c.787.981 1.865 2.325 1.362 3.5z"/></symbol><symbol id="icon-crown" viewBox="0 0 32 32"><path d="M29.687 10.326c-.253-.229-.559-.376-.883-.425s-.655.003-.954.15l-6.312 3.08a.215.215 0 0 1-.184.021.243.243 0 0 1-.142-.13l-3.688-7.287c-.15-.301-.37-.553-.638-.728s-.575-.268-.887-.268c-.312 0-.618.092-.887.268s-.489.427-.638.728l-3.687 7.287a.239.239 0 0 1-.142.13c-.03.01-.062.014-.094.01s-.062-.014-.09-.031l-6.313-3.08c-.298-.149-.628-.202-.953-.155s-.631.194-.883.423-.442.532-.546.873a2.112 2.112 0 0 0-.043 1.059l3.188 14.891c.054.252.154.489.293.697s.316.383.519.513a1.585 1.585 0 0 0 1.363.206 30.563 30.563 0 0 1 17.812-.014 1.602 1.602 0 0 0 1.367-.186 1.8 1.8 0 0 0 .524-.516c.141-.209.242-.447.297-.701l3.175-14.891c.079-.348.067-.713-.034-1.054s-.289-.643-.541-.871zm-.875 1.54-3.188 14.891a.321.321 0 0 1-.112.179.29.29 0 0 1-.2.028 31.912 31.912 0 0 0-18.625 0 .23.23 0 0 1-.197-.029.284.284 0 0 1-.116-.178L3.186 11.866c-.007-.041-.006-.083.003-.124a.288.288 0 0 1 .138-.189.235.235 0 0 1 .109-.03l.1.028 6.325 3.094c.399.198.851.222 1.266.069s.762-.472.972-.894l3.688-7.287c.02-.043.05-.08.088-.106a.22.22 0 0 1 .25 0 .248.248 0 0 1 .088.106L19.9 13.82c.21.422.557.742.972.894s.867.128 1.266-.069l6.325-3.094c.043-.021.09-.028.137-.021s.09.029.126.062c.037.032.064.075.08.124s.018.101.008.151zm-8.062 10.45c-.021.203-.109.391-.247.527s-.317.213-.503.215h-.075a35.646 35.646 0 0 0-7.85 0c-.197.023-.395-.041-.549-.177s-.254-.335-.276-.552c-.018-.218.043-.435.169-.605s.308-.278.506-.302a35.151 35.151 0 0 1 8.15 0c.196.024.375.131.501.297s.188.38.174.596z"/></symbol><symbol id="icon-medic" viewBox="0 0 31 32"><path d="M8.56 12.129H-.121a.472.472 0 0 0-.482.463v2.776c0 .256.216.463.482.463h.482v10.642c0 .256.216.463.482.463h6.752a.472.472 0 0 0 .482-.463V15.831h.482a.472.472 0 0 0 .482-.463v-2.776a.473.473 0 0 0-.482-.463zM3.255 20.92v-.925h2.894v-.925H3.255v-.925h3.858v6.015H3.255v-2.313h.965v-.925h-.965zm3.858-3.701h-4.34a.472.472 0 0 0-.482.463v6.94c0 .256.216.463.482.463h4.34v.925H1.326V15.831h5.787v1.388zm.965-2.314H.362v-1.851h7.716v1.851zM14.95 12.216V8.833a.48.48 0 0 0-.482-.476h-.482V5.975h.964v-.953H9.645v.953h3.376v2.382h-.482a.478.478 0 0 0-.482.476v3.383c-1.099.222-1.929 1.183-1.929 2.334v11.909a.48.48 0 0 0 .482.476h5.787a.478.478 0 0 0 .482-.476V14.55c0-1.15-.83-2.112-1.929-2.334zM13.021 9.31h.964v2.858h-.964V9.31zm-.482 3.811h1.929a1.44 1.44 0 0 1 1.447 1.429v.476h-4.823v-.476a1.44 1.44 0 0 1 1.447-1.429zm3.376 10.956h-4.823v-.953h1.929v-.953h-1.929v-6.193h4.823v8.098zm-4.823 1.906v-.953h4.823v.953h-4.823zM27.278 11.537H19.14a.46.46 0 0 0-.452.467v14.465a.46.46 0 0 0 .452.467h8.138a.46.46 0 0 0 .452-.467V12.004a.46.46 0 0 0-.452-.467zm-.452 14.465h-7.234V12.47h7.234v13.532z"/><path d="M6.631 21.013H5.425v.592h1.206v-.592zM15.071 22.197h-1.206v1.185h1.206v-1.185zM13.564 21.013c1.164 0 2.11-.93 2.11-2.073s-.946-2.073-2.11-2.073-2.11.93-2.11 2.073.946 2.073 2.11 2.073zm0-3.109c.582 0 1.055.465 1.055 1.036s-.473 1.036-1.055 1.036-1.055-.465-1.055-1.036.473-1.036 1.055-1.036zM22.079 16.275h2.261c.873 0 1.582-.664 1.582-1.481s-.71-1.481-1.582-1.481h-2.261c-.873 0-1.582.664-1.582 1.481s.71 1.481 1.582 1.481zm2.938-1.481c0 .35-.304.634-.678.634h-.678v-1.269h.678c.374 0 .678.285.678.635zm-2.938-.634h.678v1.269h-.678c-.374 0-.678-.285-.678-.634s.304-.635.678-.635zM22.079 21.013h2.261c.873 0 1.582-.797 1.582-1.777s-.71-1.777-1.582-1.777h-2.261c-.873 0-1.582.797-1.582 1.777s.71 1.777 1.582 1.777zm2.938-1.777c0 .42-.304.761-.678.761h-.678v-1.523h.678c.374 0 .678.342.678.761zm-2.938-.761h.678v1.523h-.678c-.374 0-.678-.342-.678-.761s.304-.761.678-.761zM22.079 25.159h2.261c.873 0 1.582-.797 1.582-1.777s-.71-1.777-1.582-1.777h-2.261c-.873 0-1.582.797-1.582 1.777s.71 1.777 1.582 1.777zm2.938-1.777c0 .42-.304.761-.678.761h-.678V22.62h.678c.374 0 .678.342.678.761zm-2.938-.761h.678v1.523h-.678c-.374 0-.678-.342-.678-.761s.304-.761.678-.761z"/></symbol><symbol id="icon-science" viewBox="0 0 32 32"><path d="M16.061 1.4c-1.05 0-2.031.478-2.867 1.261s-1.551 1.874-2.148 3.195c-.125.277-.244.564-.359.861a16.087 16.087 0 0 0-.927-.12 13.895 13.895 0 0 0-1.054-.066c-1.026-.024-1.964.08-2.786.329-1.096.332-2 .943-2.525 1.852s-.601 1.998-.341 3.113c.26 1.115.847 2.28 1.693 3.457.178.247.367.494.567.742-.196.242-.385.489-.566.741-.846 1.177-1.433 2.342-1.693 3.457s-.184 2.204.341 3.113c.525.909 1.429 1.52 2.525 1.852s2.398.407 3.841.263c.302-.03.611-.071.926-.12.112.291.231.579.359.863.596 1.321 1.312 2.412 2.148 3.195s1.817 1.261 2.867 1.261 2.031-.478 2.866-1.261 1.551-1.874 2.148-3.195c.128-.284.248-.572.359-.862.314.049.623.09.925.12 1.442.144 2.745.07 3.841-.263s2.001-.943 2.526-1.852c.525-.909.601-1.998.341-3.113s-.847-2.28-1.693-3.457c-.182-.252-.371-.5-.567-.741.196-.242.385-.489.567-.742.846-1.177 1.433-2.342 1.693-3.457s.184-2.204-.341-3.113c-.525-.909-1.429-1.52-2.525-1.852-.822-.249-1.76-.353-2.786-.329-.342.008-.694.03-1.055.066a16.8 16.8 0 0 0-.926.12c-.111-.29-.231-.577-.359-.861-.596-1.321-1.312-2.412-2.148-3.195s-1.817-1.261-2.866-1.261zm0 1.168c.7 0 1.387.308 2.068.946s1.331 1.603 1.882 2.823c.09.199.175.4.255.603a24.805 24.805 0 0 0-4.205 1.364 24.805 24.805 0 0 0-4.205-1.364c.083-.207.167-.409.255-.603.551-1.22 1.201-2.185 1.882-2.823s1.368-.946 2.068-.946zM8.337 7.696a12.707 12.707 0 0 1 1.309.062c.213.021.43.048.652.08a24.722 24.722 0 0 0-.921 4.324 24.81 24.81 0 0 0-3.284 2.96 13.294 13.294 0 0 1-.395-.524c-.781-1.087-1.292-2.133-1.504-3.041s-.135-1.657.215-2.264c.35-.607.96-1.047 1.853-1.318.586-.178 1.287-.273 2.077-.281zm15.448 0c.789.007 1.491.103 2.077.281.893.271 1.503.711 1.853 1.318s.427 1.355.215 2.264c-.212.909-.723 1.954-1.504 3.041-.128.177-.26.352-.395.524a24.81 24.81 0 0 0-3.284-2.96 24.72 24.72 0 0 0-.922-4.324c.221-.032.438-.059.651-.08a11.984 11.984 0 0 1 1.309-.062zm-3.12.353c.311.965.568 2.029.76 3.169a31.692 31.692 0 0 0-3.884-2.243 22.647 22.647 0 0 1 3.124-.926zm-9.208 0c.991.213 2.041.523 3.123.926a31.805 31.805 0 0 0-3.883 2.242 22.64 22.64 0 0 1 .76-3.168zm4.604 1.529c.95.419 1.915.906 2.877 1.462s1.867 1.147 2.705 1.761c.112 1.033.173 2.112.173 3.223s-.06 2.189-.172 3.222c-.838.614-1.743 1.205-2.705 1.761s-1.927 1.043-2.877 1.462c-.951-.419-1.916-.907-2.878-1.462s-1.866-1.147-2.704-1.76a29.94 29.94 0 0 1 0-6.446c.838-.614 1.743-1.205 2.705-1.761s1.926-1.043 2.877-1.462zm.079 1.757-3.344 2.064 3.344 2.064 3.344-2.064-3.344-2.064zm-6.923 2.446a31.648 31.648 0 0 0 0 4.484 22.675 22.675 0 0 1-2.364-2.242 22.675 22.675 0 0 1 2.364-2.242zm13.688 0c.89.736 1.683 1.49 2.363 2.242a22.76 22.76 0 0 1-2.363 2.242 31.611 31.611 0 0 0-.001-4.483zm-10.862.525v4.075l3.512 2.167v-4.075l-3.512-2.168zm8.191.002-3.511 2.167v4.073l3.511-2.167v-4.073zM6.091 16.923a24.74 24.74 0 0 0 3.284 2.96c.196 1.56.51 3.016.921 4.323-.221.032-.438.059-.65.08-1.331.133-2.493.053-3.386-.218s-1.502-.712-1.853-1.318c-.35-.607-.427-1.355-.215-2.264s.723-1.954 1.504-3.041c.128-.177.259-.352.395-.523zm19.939 0c.138.175.27.349.395.523.781 1.087 1.292 2.133 1.504 3.041s.135 1.657-.215 2.264c-.35.606-.96 1.047-1.853 1.318s-2.054.351-3.386.218a15.79 15.79 0 0 1-.65-.08c.412-1.308.725-2.764.921-4.324a24.794 24.794 0 0 0 3.283-2.959zm-4.605 3.905a22.655 22.655 0 0 1-.76 3.169 22.688 22.688 0 0 1-3.124-.926 32.057 32.057 0 0 0 3.884-2.242zm-10.727.001a32.168 32.168 0 0 0 3.883 2.242 22.635 22.635 0 0 1-3.123.926 22.503 22.503 0 0 1-.759-3.168zm5.398.053.043.026.042-.026h-.085zm-.035 2.861a24.725 24.725 0 0 0 4.206 1.364 14.57 14.57 0 0 1-.256.604c-.551 1.22-1.201 2.185-1.882 2.823s-1.368.946-2.068.946-1.387-.308-2.068-.946-1.331-1.603-1.882-2.823c-.09-.2-.175-.401-.256-.604a24.805 24.805 0 0 0 4.205-1.364z"/></symbol><symbol id="icon-Arrow" viewBox="0 0 36 32"><path d="M1.062 17.414a2 2 0 0 1 0-2.828L13.79 1.858a2 2 0 1 1 2.828 2.828L5.304 16l11.314 11.314a2 2 0 1 1-2.828 2.828L1.062 17.414zM36 18H2.476v-4H36v4z"/></symbol><symbol id="icon-arrow-left2" viewBox="0 0 32 32"><path d="m12.586 27.414-10-10a2 2 0 0 1 0-2.828l10-10a2 2 0 1 1 2.828 2.828L8.828 14H28a2 2 0 1 1 0 4H8.828l6.586 6.586c.39.39.586.902.586 1.414s-.195 1.024-.586 1.414a2 2 0 0 1-2.828 0z"/></symbol>
<symbol id="icon-Star" viewBox="0 0 32 32">
<path d="M6.693 0l10.657 10.184 14.321-3.491-10.184 10.657 3.491 14.321-10.657-10.184-14.321 3.491 10.184-10.657-3.491-14.321z"></path>
</symbol>
</defs></svg>